<svg id="Layer_1" data-name="Layer 1" xmlns="http://www.w3.org/2000/svg" viewBox="0 0 85.03937 113.38583"><defs><style>.cls-1{fill:none;}.cls-2{fill:#1d1d1b;}</style></defs><title>items icons</title><path class="cls-2" d="M30.38177,48.26786a6.90509,6.90509,0,0,1,1.78451-4.33973,3.77,3.77,0,0,1,3.33363-1.131,1.37526,1.37526,0,0,1,.88338.75481c.73917,1.61265,1.42478,3.25117,2.07534,4.90182a1.26439,1.26439,0,0,1-.099.98151,11.59788,11.59788,0,0,1-1.35337,1.82184,1.10072,1.10072,0,0,0-.17312,1.53066A16.383,16.383,0,0,0,44.983,59.67436a.95335.95335,0,0,0,1.22572-.298c.58145-.71634,1.19684-1.4072,1.74386-2.14868a.98294.98294,0,0,1,1.31138-.41752c1.674.77225,3.34842,1.54717,4.9843,2.39508a1.25677,1.25677,0,0,1,.40887.99015,5.10575,5.10575,0,0,1-4.2376,4.85684,8.29237,8.29237,0,0,1-3.94245-.24149A22.99458,22.99458,0,0,1,33.14,55.076a13.97289,13.97289,0,0,1-2.55725-5.16519C30.477,49.37073,30.44668,48.81592,30.38177,48.26786Z"/><path class="cls-2" d="M66.98546,48.637a24.32658,24.32658,0,1,0-45.191,16.05719,1.42024,1.42024,0,0,1,.093,1.01556c-.78027,2.41168-1.60578,4.80872-2.418,7.21-.57306,1.69422-1.147,3.38813-1.753,5.178.31555-.0932.53033-.15271.74261-.22,4.02008-1.27344,8.04206-2.54107,12.05676-3.8313a1.48062,1.48062,0,0,1,1.23688.08356A24.35206,24.35206,0,0,0,66.98546,48.637ZM46.73735,73.86647A21.47481,21.47481,0,0,1,32.96,71.79317,1.31448,1.31448,0,0,0,31.8618,71.719c-3.56457,1.14557-7.13556,2.271-10.70483,3.40173-.18854.05969-.37921.11255-.65936.19531.53808-1.58923,1.04767-3.0932,1.55645-4.59747.7212-2.132,1.45411-4.26025,2.14686-6.40149a1.26038,1.26038,0,0,0-.08252-.90173A21.65441,21.65441,0,1,1,46.73735,73.86647Z"/></svg>