<svg id="Layer_1" data-name="Layer 1" xmlns="http://www.w3.org/2000/svg" viewBox="0 0 85.03937 113.38583"><defs><style>.cls-1{fill:none;}.cls-2{fill:#1d1d1b;}</style></defs><title>items icons</title><path class="cls-1" d="M22.8034,102.85133a1.77914,1.77914,0,0,1,.44531-1.31836,1.88756,1.88756,0,0,1,1.376-.4414h1.17286v1.8125a2.4597,2.4597,0,0,0,.02929.42773.609.609,0,0,0,.08789.24219.27932.27932,0,0,0,.14746.11035.73275.73275,0,0,0,.208.02637H26.693a.43522.43522,0,0,1,.23829.05273.20309.20309,0,0,1,.0791.18164v.30371a.31087.31087,0,0,1-.02442.13477.17575.17575,0,0,1-.06836.07715.27353.27353,0,0,1-.10058.03515.833.833,0,0,1-.124.00879h-.55566a1.35254,1.35254,0,0,1-.41895-.0664.952.952,0,0,1-.36132-.21582,1.07931,1.07931,0,0,1-.25586-.39454,1.64507,1.64507,0,0,1-.09668-.60156v-1.38086h-.15918a3.08184,3.08184,0,0,0-.52051.04.93023.93023,0,0,0-.39258.1582.74288.74288,0,0,0-.248.333,1.50653,1.50653,0,0,0-.08594.5625V104.24a1.8811,1.8811,0,0,1-.1836.80274,2.14736,2.14736,0,0,1-.52929.69922,2.69762,2.69762,0,0,1-.84668.49316,3.22113,3.22113,0,0,1-1.13574.1875,4.13553,4.13553,0,0,1-1.05567-.11914,3.01348,3.01348,0,0,1-.78125-.31543,2.14629,2.14629,0,0,1-.542-.44727,2.39886,2.39886,0,0,1-.33984-.51171,2.24248,2.24248,0,0,1-.22657-.94336,3.191,3.191,0,0,1,.03711-.48535,3.14418,3.14418,0,0,1,.10645-.45411,2.53606,2.53606,0,0,1,.16406-.39843,2.10138,2.10138,0,0,1,.20605-.32422l.6543.35644a1.53257,1.53257,0,0,0-.15137.2627,2.4074,2.4074,0,0,0-.11914.31054,2.316,2.316,0,0,0-.07714.333,2.173,2.173,0,0,0-.02637.333,1.814,1.814,0,0,0,.03222.32617,1.36748,1.36748,0,0,0,.1211.35352,1.44031,1.44031,0,0,0,.63476.63281,2.32555,2.32555,0,0,0,.5752.2002,3.67776,3.67776,0,0,0,.79.07519,2.71377,2.71377,0,0,0,.79785-.1084,1.96268,1.96268,0,0,0,.59668-.28906,1.32671,1.32671,0,0,0,.374-.40918.95412.95412,0,0,0,.12989-.47656Zm-2.97168,4.65625a.459.459,0,0,1,.03711-.18262.5177.5177,0,0,1,.0996-.15039.45181.45181,0,0,1,.14747-.10156.47028.47028,0,0,1,.36621,0,.47957.47957,0,0,1,.251.252.45682.45682,0,0,1,0,.36524.4512.4512,0,0,1-.10156.14844.47979.47979,0,0,1-.14941.09863.47137.47137,0,0,1-.51563-.09668A.4529.4529,0,0,1,19.83172,107.50758Zm1.25683,0a.44281.44281,0,0,1,.03711-.18262.51773.51773,0,0,1,.09961-.15039.45176.45176,0,0,1,.14746-.10156.47028.47028,0,0,1,.36621,0,.48225.48225,0,0,1,.14942.10156.47.47,0,0,1,.10156.15039.45682.45682,0,0,1,0,.36524.4512.4512,0,0,1-.10156.14844.49149.49149,0,0,1-.14942.09863.448.448,0,0,1-.18359.03809.45874.45874,0,0,1-.4668-.46778Z"/><path class="cls-1" d="M26.693,104.50465a.43529.43529,0,0,1-.23828-.05273.20127.20127,0,0,1-.0791-.18067v-.30468a.31072.31072,0,0,1,.02442-.13477.17579.17579,0,0,1,.06835-.07715.27213.27213,0,0,1,.10157-.03515.81018.81018,0,0,1,.123-.00879h1.45118v-2.61426h.793v3.4082Zm1.415-4.99219a.44675.44675,0,0,1,.03809-.18261.47983.47983,0,0,1,.09863-.14942.4511.4511,0,0,1,.14844-.10156.4568.4568,0,0,1,.36523,0,.47961.47961,0,0,1,.252.251.47028.47028,0,0,1,0,.36621.45164.45164,0,0,1-.10157.14746.51746.51746,0,0,1-.15039.09961.459.459,0,0,1-.18261.03711.46034.46034,0,0,1-.46778-.46778Z"/><path class="cls-1" d="M33.13152,104.34059a1.69476,1.69476,0,0,1-.22461.084,2.14977,2.14977,0,0,1-.23828.05567c-.08008.01367-.15625.02246-.22949.02929-.07324.00586-.1416.00879-.20313.00879a2.064,2.064,0,0,1-.85058-.15722,1.63645,1.63645,0,0,1-.56739-.40332,1.5418,1.5418,0,0,1-.31738-.55762,2.03391,2.03391,0,0,1-.09863-.61523,1.946,1.946,0,0,1,.13183-.71875,1.716,1.716,0,0,1,.37989-.584,1.76555,1.76555,0,0,1,.59375-.39062,2.0593,2.0593,0,0,1,.77929-.14063,2.16742,2.16742,0,0,1,.36231.03223,1.50777,1.50777,0,0,1,.37305.11914,1.4719,1.4719,0,0,1,.34668.23144,1.42523,1.42523,0,0,1,.2871.36817,2.09575,2.09575,0,0,1,.19629.5332,3.17631,3.17631,0,0,1,.07325.72168v.74023a2.96594,2.96594,0,0,1-.21582,1.20313,2.07575,2.07575,0,0,1-.59961.7959,2.61578,2.61578,0,0,1-.916.46972,6.08883,6.08883,0,0,1-1.166.22071l-.084-.7627a4.32285,4.32285,0,0,0,.86621-.1416,2.55985,2.55985,0,0,0,.64844-.27051,1.58891,1.58891,0,0,0,.43945-.38574A1.33037,1.33037,0,0,0,33.13152,104.34059Zm-.76758-.61621c.07324,0,.14844-.00391.22461-.01074.07715-.00782.14942-.01758.21875-.03125s.13184-.02832.18946-.04395a1.04931,1.04931,0,0,0,.13476-.0459v-.38281a2.86162,2.86162,0,0,0-.08594-.76855,1.2812,1.2812,0,0,0-.22461-.46192.7168.7168,0,0,0-.31836-.22461,1.1443,1.1443,0,0,0-.35937-.05859.96048.96048,0,0,0-.37891.07422.90451.90451,0,0,0-.30664.21191.9907.9907,0,0,0-.20508.32715,1.14684,1.14684,0,0,0-.07519.41992,1.093,1.093,0,0,0,.06641.37891.82116.82116,0,0,0,.21.3164,1.00678,1.00678,0,0,0,.36816.21778A1.58291,1.58291,0,0,0,32.36394,103.72438Z"/><path class="cls-1" d="M34.49773,105.58961a2.736,2.736,0,0,0,.752-.1875.9801.9801,0,0,0,.61524-.7832,3.67679,3.67679,0,0,0,.04394-.59961v-2.92285h.794v2.61426h1.03613a.43516.43516,0,0,1,.23828.05273.20307.20307,0,0,1,.07911.18164v.30371a.31087.31087,0,0,1-.02442.13477.17575.17575,0,0,1-.06836.07715.27353.27353,0,0,1-.10058.03515.83308.83308,0,0,1-.124.00879H36.65886a2.61453,2.61453,0,0,1-.22265.78223,1.60842,1.60842,0,0,1-.415.53613,1.88933,1.88933,0,0,1-.61719.33789,4.66149,4.66149,0,0,1-.82715.18653Z"/><path class="cls-1" d="M39.72722,103.43727a1.41976,1.41976,0,0,0,.46973.20508,2.66213,2.66213,0,0,0,.64648.06836h.03516a.43516.43516,0,0,1,.23828.05273.20306.20306,0,0,1,.0791.18164v.30371a.31088.31088,0,0,1-.02441.13477.17581.17581,0,0,1-.06836.07715.27232.27232,0,0,1-.10156.03515.81031.81031,0,0,1-.123.00879h-.04394a2.112,2.112,0,0,1-.7627-.11914,1.823,1.823,0,0,1-.51953-.2998.97086.97086,0,0,1-.29395.29785.83013.83013,0,0,1-.46582.12109H37.73894a.43527.43527,0,0,1-.23828-.05273.20127.20127,0,0,1-.0791-.18067v-.30468a.31088.31088,0,0,1,.02441-.13477.17587.17587,0,0,1,.06836-.07715.27213.27213,0,0,1,.10157-.03515.81018.81018,0,0,1,.123-.00879h.89063a.2548.2548,0,0,0,.22265-.12305.68452.68452,0,0,0,.082-.375v-2.1123h.793Zm-1.5166-3.92481a.44675.44675,0,0,1,.03809-.18261.47983.47983,0,0,1,.09863-.14942.46043.46043,0,0,1,.51367-.10156.46993.46993,0,0,1,.15039.10156.48733.48733,0,0,1,.10157.14942.46154.46154,0,0,1-.10157.51367.5176.5176,0,0,1-.15039.09961.46251.46251,0,0,1-.18261.03711.46034.46034,0,0,1-.46778-.46778Zm1.25684,0a.46233.46233,0,0,1,.03711-.18261.5.5,0,0,1,.09961-.14942.46043.46043,0,0,1,.51367-.10156.47334.47334,0,0,1,.251.251.46442.46442,0,0,1-.10059.51367.5176.5176,0,0,1-.15039.09961.46259.46259,0,0,1-.18262.03711.46033.46033,0,0,1-.46777-.46778Z"/><path class="cls-1" d="M40.88347,104.50465a.43529.43529,0,0,1-.23828-.05273.20127.20127,0,0,1-.0791-.18067v-.30468a.31072.31072,0,0,1,.02442-.13477.17579.17579,0,0,1,.06835-.07715.27213.27213,0,0,1,.10157-.03515.81018.81018,0,0,1,.123-.00879h1.32715a2.94212,2.94212,0,0,0,.51367-.03711.90273.90273,0,0,0,.31543-.11035.40237.40237,0,0,0,.15918-.17676.595.595,0,0,0,.04395-.23535.876.876,0,0,0-.12109-.43067,2.00563,2.00563,0,0,0-.3418-.42773,4.16,4.16,0,0,0-.52539-.42285c-.20215-.13965-.42481-.27832-.666-.417l1.75977-3.02441.57812.40527-1.3457,2.3545a4.53275,4.53275,0,0,1,.56055.39257,2.80539,2.80539,0,0,1,.43847.45215,2.01511,2.01511,0,0,1,.28418.50489,1.52372,1.52372,0,0,1,.10157.55566,1.67342,1.67342,0,0,1-.03028.335,1.43816,1.43816,0,0,0,.47852.21191,2.65132,2.65132,0,0,0,.65039.07032h.03515a.43749.43749,0,0,1,.23829.05273.20309.20309,0,0,1,.0791.18164v.30371a.31087.31087,0,0,1-.02442.13477.18192.18192,0,0,1-.06836.07715.27845.27845,0,0,1-.10156.03515.81022.81022,0,0,1-.123.00879h-.04394a2.6298,2.6298,0,0,1-.46094-.03711,1.84333,1.84333,0,0,1-.37109-.10644,1.64073,1.64073,0,0,1-.29688-.15821,1.94065,1.94065,0,0,1-.24316-.19628,1.24939,1.24939,0,0,1-.5293.36816,2.33862,2.33862,0,0,1-.8418.12988Z"/><path class="cls-1" d="M45.09832,104.50465a.43525.43525,0,0,1-.23828-.05273.20126.20126,0,0,1-.07911-.18067v-.30468a.31087.31087,0,0,1,.02442-.13477.17575.17575,0,0,1,.06836-.07715.27214.27214,0,0,1,.10156-.03515.81031.81031,0,0,1,.123-.00879h1.19922v-5.543h.79394v6.33691Z"/><path class="cls-1" d="M49.50359,105.54567a.96363.96363,0,0,0-.10547-.01758,1.25268,1.25268,0,0,0-.15429-.00879.60074.60074,0,0,0-.31348.07422.27114.27114,0,0,0-.123.252.38783.38783,0,0,0,.04.167.43245.43245,0,0,0,.11914.1504.61765.61765,0,0,0,.2002.10742.87653.87653,0,0,0,.28906.042h.12793v.37109H48.21648v-.37109h.50293a.64689.64689,0,0,1-.08887-.07422.66294.66294,0,0,1-.09179-.12207.755.755,0,0,1-.0752-.165.65355.65355,0,0,1-.03125-.207.55577.55577,0,0,1,.04688-.22266.5264.5264,0,0,1,.14258-.19238.73454.73454,0,0,1,.24511-.13379,1.05673,1.05673,0,0,1,.34571-.05078c.05078,0,.10449.001.16113.00391a1.5695,1.5695,0,0,1,.1875.02246Zm-.91211-7.37305h.794v6.33691h-.794Z"/><path class="cls-1" d="M53.00164,104.50465v-.79394h1.50293a2.94228,2.94228,0,0,0,.51367-.03711.90273.90273,0,0,0,.31543-.11035.391.391,0,0,0,.15918-.17676.595.595,0,0,0,.04394-.23535,1.12189,1.12189,0,0,0-.126-.49219,2.72369,2.72369,0,0,0-.33008-.51367,5.31072,5.31072,0,0,0-.46094-.5q-.25635-.24464-.5166-.457l.58691-.57715a7.48536,7.48536,0,0,1,.57129.54883,5.56208,5.56208,0,0,1,.50293.61718,3.40477,3.40477,0,0,1,.35938.65528,1.74658,1.74658,0,0,1,.13672.66113,1.71627,1.71627,0,0,1-.02735.30469,1.40333,1.40333,0,0,0,.49024.23535,2.58186,2.58186,0,0,0,.67871.07715h.03515a.433.433,0,0,1,.23829.05273.20309.20309,0,0,1,.0791.18164v.30371a.31072.31072,0,0,1-.02442.13477.17575.17575,0,0,1-.06836.07715.27353.27353,0,0,1-.10058.03515.833.833,0,0,1-.124.00879h-.04394a2.56755,2.56755,0,0,1-.47168-.04,1.78633,1.78633,0,0,1-.37891-.11035,1.52237,1.52237,0,0,1-.30273-.167,1.96116,1.96116,0,0,1-.24414-.207,1.28389,1.28389,0,0,1-.53223.38574,2.26637,2.26637,0,0,1-.85742.13867Z"/><path class="cls-1" d="M57.43718,104.50465a.43529.43529,0,0,1-.23828-.05273.20127.20127,0,0,1-.0791-.18067v-.30468a.31072.31072,0,0,1,.02442-.13477.17575.17575,0,0,1,.06836-.07715.27208.27208,0,0,1,.10156-.03515.81018.81018,0,0,1,.123-.00879h1.45118v-2.61426h.793v3.4082Zm.55567,1.32324a.46362.46362,0,0,1,.03711-.18359.51251.51251,0,0,1,.09961-.14941.43725.43725,0,0,1,.14746-.10157.45926.45926,0,0,1,.36621,0,.47011.47011,0,0,1,.15039.10157.47943.47943,0,0,1,.10059.14941.46442.46442,0,0,1-.10059.51367.51739.51739,0,0,1-.15039.09961.46238.46238,0,0,1-.18262.03711.45872.45872,0,0,1-.46777-.4668Zm1.25683,0a.46379.46379,0,0,1,.03711-.18359.5127.5127,0,0,1,.09961-.14941.43745.43745,0,0,1,.14746-.10157.45928.45928,0,0,1,.36622,0,.45551.45551,0,0,1,.14941.10157.46567.46567,0,0,1,.10156.14941.45915.45915,0,0,1,0,.36621.43708.43708,0,0,1-.10156.14746.49993.49993,0,0,1-.14941.09961.46366.46366,0,0,1-.1836.03711.45871.45871,0,0,1-.4668-.4668Z"/><path class="cls-1" d="M60.81023,105.58961a2.736,2.736,0,0,0,.752-.1875.9801.9801,0,0,0,.61524-.7832,3.67679,3.67679,0,0,0,.04394-.59961v-2.92285h.794v2.61426h1.03613a.43516.43516,0,0,1,.23828.05273.20307.20307,0,0,1,.07911.18164v.30371a.31087.31087,0,0,1-.02442.13477.17575.17575,0,0,1-.06836.07715.27353.27353,0,0,1-.10058.03515.83308.83308,0,0,1-.124.00879H62.97136a2.61453,2.61453,0,0,1-.22265.78223,1.60842,1.60842,0,0,1-.415.53613,1.88933,1.88933,0,0,1-.61719.33789,4.66149,4.66149,0,0,1-.82715.18653Z"/><path class="cls-1" d="M64.05144,104.50465a.43527.43527,0,0,1-.23828-.05273.20127.20127,0,0,1-.0791-.18067v-.30468a.31088.31088,0,0,1,.02441-.13477.17587.17587,0,0,1,.06836-.07715.27213.27213,0,0,1,.10157-.03515.81018.81018,0,0,1,.123-.00879h1.45117v-2.61426h.793v3.4082Zm1.38477,1.32324a.46362.46362,0,0,1,.03711-.18359.51251.51251,0,0,1,.09961-.14941.43725.43725,0,0,1,.14746-.10157.45926.45926,0,0,1,.36621,0,.4554.4554,0,0,1,.14941.10157.46586.46586,0,0,1,.10157.14941.45926.45926,0,0,1,0,.36621.43725.43725,0,0,1-.10157.14746.4998.4998,0,0,1-.14941.09961.46365.46365,0,0,1-.18359.03711.45869.45869,0,0,1-.4668-.4668Z"/><path class="cls-2" d="M42.499,76.92521q-9.94887.00047-19.89773.00012c-1.30509-.00007-1.5347-.2804-1.52855-1.593.01961-4.18425.01234-8.36865.00914-12.553-.00386-5.0419-.02115-10.08383-.00512-15.12565a1.37663,1.37663,0,0,1,.38307-.93052c1.94295-1.71487,3.8792-3.44232,5.90515-5.05592A2.86531,2.86531,0,0,0,28.518,39.05948c-.076-3.07364-.0274-6.15039-.02555-9.22591.00067-1.10059.278-1.379,1.36636-1.37908q12.64793-.00075,25.29585.00018c1.10176.00007,1.38365.2778,1.38383,1.36059.00057,3.41027.00771,6.82058-.00908,10.23076a1.18325,1.18325,0,0,0,.46826,1.00786c2.00079,1.71417,3.9373,3.50628,5.98543,5.16078a2.42421,2.42421,0,0,1,.98621,2.16293c-.03051,9.10081-.0111,18.20179-.00571,27.30272.00055.92158-.33,1.243-1.31588,1.24332Q52.57335,76.92732,42.499,76.92521ZM30.33429,30.36345c0,.33772-.00031.60667.00005.87561.00932,7.0735.02614,14.147.014,21.22048a1.47646,1.47646,0,0,0,.60728,1.26745c2.06412,1.70464,4.10643,3.43567,6.1579,5.15566.58708.49222,1.179.97864,1.77183,1.47031.588-.49732,1.13147-.95514,1.673-1.41522a2.80013,2.80013,0,0,1,3.82221-.066c.59719.48283,1.18077.98252,1.78068,1.48307,2.71679-2.28394,5.385-4.53661,8.06884-6.77058a1.098,1.098,0,0,0,.45511-.94385q-.02-10.83039-.011-21.66084c-.00005-.20031-.02067-.40062-.03254-.61613ZM60.61362,75.01c-1.59383-1.33885-3.06391-2.57558-4.536-3.81q-6.17458-5.17759-12.35323-10.35031a1.64232,1.64232,0,0,0-2.462.01781q-7.32838,6.14286-14.65065,12.293c-.69258.58144-1.37906,1.17013-2.179,1.84944ZM62.058,49.50719l-14.414,12.10469c4.82435,4.0512,9.58114,8.04565,14.414,12.104Zm-39.022.05328V73.66615L37.38677,61.611Zm38.47195-2.09509-4.91529-4.28175V51.591Zm-33.08923-4.269-4.89585,4.27143,4.89585,4.10449Z"/><path class="cls-2" d="M43.82388,46.61538a2.5886,2.5886,0,0,1-2.9372.59758A2.46344,2.46344,0,0,1,39.324,44.90731a4.81868,4.81868,0,0,1,.56492-2.96813,3.079,3.079,0,0,1,2.72173-1.62874,1.93419,1.93419,0,0,1,1.8319.96221l.23981-.75065H46.096c-.29487,1.422-.59587,2.8212-.869,4.22581-.07326.37668-.41477.88584.10989,1.1131.50391.21828.93044-.16458,1.2123-.56953a4.55344,4.55344,0,0,0,.38772-4.37315,3.51507,3.51507,0,0,0-3.24911-2.18262c-4.94325-.6117-6.81583,4.12908-5.44842,7.56008a3.8944,3.8944,0,0,0,3.1973,2.43522,9.71054,9.71054,0,0,0,5.808-.74012l.57928,1.031a7.347,7.347,0,0,1-.859.49,10.16116,10.16116,0,0,1-6.396.46258,5.13121,5.13121,0,0,1-3.887-3.79654,7.58015,7.58015,0,0,1,.38169-5.3849,5.99572,5.99572,0,0,1,5.95551-3.36731,11.2423,11.2423,0,0,1,1.24536.12907c3.19778.591,4.79828,2.84042,4.33416,6.06931A5.34339,5.34339,0,0,1,47.414,46.47752a2.56013,2.56013,0,0,1-1.83525.96518A1.69373,1.69373,0,0,1,43.82388,46.61538Zm-3.03421-2.372c.06783,1.04731.33083,1.52048.97912,1.6482a1.4779,1.4779,0,0,0,1.855-1.08262,5.51186,5.51186,0,0,0,.261-2.06886c-.05886-.84539-.69347-1.19677-1.529-1.01028a1.61944,1.61944,0,0,0-1.21871,1.06608A12.3651,12.3651,0,0,0,40.78967,44.24338Z"/></svg>