<?xml version="1.0"?>
<svg xmlns="http://www.w3.org/2000/svg" xmlns:xlink="http://www.w3.org/1999/xlink" version="1.1" id="Capa_1" x="0px" y="0px" viewBox="0 0 512.002 512.002" style="enable-background:new 0 0 512.002 512.002;" xml:space="preserve" width="512px" height="512px" class=""><g><g>
	<path d="M448.861,137.719l2.854,116.152c0.404,16.479-8.213,31.836-22.487,40.076l-214.274,123.71l127.156,73.157   c2.714,1.561,5.711,2.179,8.613,1.957c4.775-0.366,9.294-3.008,11.864-7.47l140.57-243.971c2.743-4.761,2.664-10.64-0.206-15.324   L448.861,137.719z" data-original="#000000" class="active-path" data-old_color="#aeaeae" fill="#aeaeae"/>
	<path d="M164.121,185.349c-0.597-0.345-1.663-0.816-3.023-0.816c-0.489,0-1.017,0.061-1.575,0.21   c-2.11,0.565-3.211,2.012-3.68,2.824c-0.469,0.812-1.17,2.489-0.605,4.598c0.865,3.228,4.192,5.151,7.422,4.286   c2.11-0.565,3.211-2.012,3.68-2.824s1.171-2.489,0.605-4.598C166.379,186.919,164.933,185.818,164.121,185.349z" data-original="#000000" class="active-path" data-old_color="#aeaeae" fill="#aeaeae"/>
	<path d="M277.495,241.679c-3.228,0.865-5.149,4.195-4.285,7.423c0.565,2.11,2.012,3.211,2.823,3.68   c0.812,0.468,2.489,1.17,4.599,0.605c3.228-0.865,5.15-4.195,4.286-7.422C284.052,242.737,280.722,240.814,277.495,241.679z" data-original="#000000" class="active-path" data-old_color="#aeaeae" fill="#aeaeae"/>
	<path d="M421.724,254.607l-3.552-144.596c-0.125-5.095-2.829-9.778-7.179-12.434l-13.577-8.29   c-5.216,5.623-8.413,13.143-8.413,21.399c0,4.551,1.013,9.139,2.93,13.267c10.45,22.503,0.645,49.314-21.86,59.768   c-5.986,2.78-12.36,4.19-18.943,4.19c-17.449,0-33.473-10.224-40.824-26.049c-7.395-15.923-11.303-33.619-11.303-51.175   c0-25.404,7.842-49.007,21.225-68.528l-32.683-19.955c-2.398-1.464-5.107-2.198-7.818-2.198c-2.587,0-5.177,0.669-7.499,2.01   L7.502,174.855c-7.174,4.142-9.632,13.316-5.49,20.49l127,219.97c2.778,4.813,7.82,7.502,13.004,7.502   c2.544,0,5.124-0.648,7.486-2.012l264.726-152.839C418.983,265.221,421.858,260.097,421.724,254.607z M161.099,226.661   c-15.921,0-30.528-10.639-34.84-26.731c-2.493-9.304-1.213-19.021,3.603-27.363c4.816-8.341,12.592-14.308,21.896-16.801   c9.304-2.492,19.021-1.213,27.362,3.602c8.342,4.816,14.309,12.592,16.801,21.896c2.493,9.304,1.214,19.021-3.602,27.363   s-12.592,14.309-21.896,16.801C167.31,226.263,164.179,226.661,161.099,226.661z M200.034,309.029   c-1.285,0-2.591-0.167-3.892-0.515c-8.002-2.144-12.75-10.369-10.606-18.371l40.176-149.939   c2.144-8.001,10.365-12.751,18.371-10.606c8.002,2.144,12.75,10.369,10.606,18.371l-40.176,149.939   C212.718,304.609,206.657,309.029,200.034,309.029z M288.397,282.365c-3.114,0.834-6.245,1.233-9.325,1.233   c-15.921,0-30.528-10.639-34.839-26.731c-5.146-19.206,6.292-39.018,25.498-44.165c0,0,0,0,0.001,0   c19.205-5.148,39.018,6.293,44.164,25.498C319.041,257.406,307.602,277.218,288.397,282.365z" data-original="#000000" class="active-path" data-old_color="#aeaeae" fill="#aeaeae"/>
	<path d="M351.129,157.911c2.115,0,4.263-0.449,6.308-1.399c7.513-3.49,10.775-12.409,7.286-19.923   c-3.743-8.059-5.721-17.016-5.721-25.902c0-33.911,27.589-61.5,61.5-61.5s61.5,27.589,61.5,61.5c0,6.528-1.007,12.843-2.889,18.785   l18.583,30.332c9.373-14.684,14.306-31.528,14.306-49.116c0-50.453-41.047-91.5-91.5-91.5s-91.5,41.047-91.5,91.5   c0,13.222,2.943,26.548,8.512,38.539C340.055,154.694,345.472,157.911,351.129,157.911z" data-original="#000000" class="active-path" data-old_color="#aeaeae" fill="#aeaeae"/>
</g></g> </svg>
