<svg id="Layer_1" data-name="Layer 1" xmlns="http://www.w3.org/2000/svg" viewBox="0 0 28.34646 28.34646"><defs><style>.cls-1{fill:#1d1d1b;}</style></defs><title>Category sort</title><path class="cls-1" d="M19.39405,12.36331c.18865.0418.35506.08337.52333.115a.84162.84162,0,0,1,.71724.66972.884.884,0,0,1-.28891.90549c-.74048.71773-1.49072,1.42566-2.218,2.15648a.621.621,0,0,0-.1241.466c.1485,1.03549.34569,2.06436.47829,3.10162a.881.881,0,0,1-1.30607.90007c-.9011-.44077-1.78713-.9133-2.66912-1.39156a.66414.66414,0,0,0-.72388.01116c-.814.45087-1.64954.86257-2.46837,1.30492a1.01454,1.01454,0,0,1-1.18468-.01619.993.993,0,0,1-.29216-1.07337c.16174-.93054.343-1.85806.48055-2.79207a.76106.76106,0,0,0-.18283-.56425c-.67151-.68622-1.36679-1.34968-2.06649-2.00757a1.00443,1.00443,0,0,1-.33653-1.09844.88994.88994,0,0,1,.82473-.60718c.90761-.12138,1.81116-.27409,2.71981-.38612a.86473.86473,0,0,0,.786-.55688c.36579-.82368.79627-1.61838,1.18547-2.432a.96526.96526,0,0,1,.8947-.64832.9462.9462,0,0,1,.89915.63944c.41151.85109.83686,1.69549,1.257,2.5424a.70618.70618,0,0,0,1.19762.21422c.15562-.15313.30855-.309.46347-.46283a.88283.88283,0,0,1,1.10654-.21044.821.821,0,0,1,.3724.97865C19.4285,12.18965,19.414,12.25744,19.39405,12.36331Zm-2.67.10591c-.54656-.15434-.546-.15464-.81783-.70685-.37939-.77064-.74091-1.551-1.15056-2.30528-.13293-.24476-.36488-.54668-.60114-.59917-.38378-.08528-.48566.33924-.62578.61578q-.641,1.2651-1.25825,2.54215a.64553.64553,0,0,1-.56194.40043c-1.00983.12955-2.01893.27088-3.02127.44767a.78856.78856,0,0,0-.54047.385c-.05479.14873.096.4385.23909.58381.71519.72612,1.45369,1.42957,2.19373,2.13072a.58346.58346,0,0,1,.20408.60757c-.19031.98511-.36017,1.975-.49964,2.96849a1.00737,1.00737,0,0,0,.1527.707c.21655.26478.508.06773.752-.0599.85114-.44516,1.70595-.88384,2.54708-1.34728a.7453.7453,0,0,1,.80739-.00909c.85406.47031,1.71634.92742,2.59257,1.35446a.9893.9893,0,0,0,.71637.0692c.30608-.1247.2343-.45517.18223-.73455-.16785-.90055-.33079-1.802-.49669-2.70294a.92634.92634,0,0,1,.30833-.96405c.73535-.6579,1.42978-1.363,2.11651-2.0725a.70359.70359,0,0,0,.19189-.5632c-.04594-.15359-.291-.27681-.47358-.355-.61167-.26191-.97493.10715-1.37123.51478-1.2073,1.24178-2.44531,2.45388-3.68093,3.66779a.59181.59181,0,0,1-.87033.03667q-1.2938-1.2383-2.53926-2.52661a.78077.78077,0,0,1,.00639-1.04446.8354.8354,0,0,1,1.03043-.20173,1.96155,1.96155,0,0,1,.43938.35281c.47752.484.94585.97711,1.41351,1.46248Zm-2.493,3.27714c-.13469-.10869-.19472-.149-.2451-.199q-.85229-.84636-1.70225-1.695c-.20284-.20167-.43784-.33672-.68768-.10743-.25293.23213-.14378.46879.06633.67812q1.11393,1.10979,2.22525,2.22217a.33654.33654,0,0,0,.55762-.0124c.24162-.25222.4919-.49617.73943-.74268q1.81029-1.80283,3.6219-3.60435c.21464-.21312.38057-.44264.113-.70928-.24961-.24876-.47627-.09845-.67779.10359-.17472.17517-.35232.3475-.52587.52381C16.563,13.375,15.41083,14.54689,14.23108,15.74636Z"/></svg>