<svg id="Layer_1" data-name="Layer 1" xmlns="http://www.w3.org/2000/svg" viewBox="0 0 28.34646 28.34646"><defs><style>.cls-1{fill:#1d1d1b;}.cls-2{fill:none;stroke:#1d1d1b;stroke-miterlimit:10;stroke-width:1.54944px;}</style></defs><title>Category sort</title><path class="cls-1" d="M12.02422,15.7931a1.31418,1.31418,0,0,0,.1271.60518,1.12317,1.12317,0,0,0,.33761.402,1.45519,1.45519,0,0,0,.4893.22812,2.29035,2.29035,0,0,0,.592.07446,2.99331,2.99331,0,0,0,.44045-.0347,1.5093,1.5093,0,0,0,.44029-.1341.95637.95637,0,0,0,.34243-.27293.6903.6903,0,0,0,.13706-.44142.62582.62582,0,0,0-.18109-.46635,1.43167,1.43167,0,0,0-.47452-.29754,4.68642,4.68642,0,0,0-.66541-.20856q-.372-.089-.75347-.19847a7.21823,7.21823,0,0,1-.76327-.2379,2.42766,2.42766,0,0,1-.66541-.37232,1.81222,1.81222,0,0,1-.47452-.57048,1.7425,1.7425,0,0,1-.18109-.83361,1.87527,1.87527,0,0,1,.22994-.94753,2.10112,2.10112,0,0,1,.60178-.66986,2.61021,2.61021,0,0,1,.84153-.39693,3.541,3.541,0,0,1,.93939-.12873,4.38865,4.38865,0,0,1,1.052.124,2.61266,2.61266,0,0,1,.89536.40166,2.03,2.03,0,0,1,.62138.70962,2.20374,2.20374,0,0,1,.23,1.04691H14.69551a1.26729,1.26729,0,0,0-.13209-.526.87427.87427,0,0,0-.2984-.32751,1.2576,1.2576,0,0,0-.43049-.16849,2.60422,2.60422,0,0,0-.5187-.04986,1.79368,1.79368,0,0,0-.37183.03976.99138.99138,0,0,0-.33761.13883.83769.83769,0,0,0-.24955.25305.68113.68113,0,0,0-.09786.37232.64263.64263,0,0,0,.07826.3373.70063.70063,0,0,0,.30836.23822,3.86124,3.86124,0,0,0,.636.218q.40583.10933,1.06167.278.19555.04969.54312.14892a2.46817,2.46817,0,0,1,.68984.32752,2.10263,2.10263,0,0,1,.592.60991,1.75558,1.75558,0,0,1,.24955.9775,2.19366,2.19366,0,0,1-.18592.903,1.96174,1.96174,0,0,1-.55277.7194,2.70378,2.70378,0,0,1-.91014.47613,4.132,4.132,0,0,1-1.25739.17386,4.22635,4.22635,0,0,1-1.12048-.14893,2.87236,2.87236,0,0,1-.95883-.45657,2.21823,2.21823,0,0,1-.66059-.78376,2.36362,2.36362,0,0,1-.23477-1.13116Z"/><path class="cls-1" d="M17.32775,10.89141H21.0951a2.13151,2.13151,0,0,1,.84635.1613,1.94231,1.94231,0,0,1,.646.44161,1.92192,1.92192,0,0,1,.41089.65482,2.21107,2.21107,0,0,1,.14189.79034,2.34428,2.34428,0,0,1-.2592,1.13278,1.65443,1.65443,0,0,1-.84651.72787V14.821a1.13543,1.13543,0,0,1,.4697.25948,1.48355,1.48355,0,0,1,.30338.41087,1.973,1.973,0,0,1,.17113.50938,4.57076,4.57076,0,0,1,.07344.556q.0098.177.0196.41583.00957.23947.03423.48854a3.43172,3.43172,0,0,0,.07825.473,1.11985,1.11985,0,0,0,.1615.37947H21.80936a1.91318,1.91318,0,0,1-.10268-.38972q-.0343-.2132-.05865-.44723-.02475-.23353-.03921-.478-.0147-.24444-.044-.46277a1.5224,1.5224,0,0,0-.33263-.85215,1.10086,1.10086,0,0,0-.83188-.27039H18.86409v2.90023H17.32775Zm1.53634,3.3577h1.68306a1.11629,1.11629,0,0,0,.79252-.24957,1.07379,1.07379,0,0,0,.26433-.81083,1.0245,1.0245,0,0,0-.26433-.78472,1.13262,1.13262,0,0,0-.79252-.24427H18.86409Z"/><line class="cls-2" x1="5.72456" y1="12.66234" x2="5.72456" y2="18.31352"/><polygon class="cls-1" points="3.098 15.749 5.725 13.12 8.351 15.749 8.351 13.518 5.725 10.891 3.098 13.518 3.098 15.749"/></svg>