<svg id="Layer_1" data-name="Layer 1" xmlns="http://www.w3.org/2000/svg" viewBox="0 0 85.03937 113.38583"><defs><style>.cls-1{fill:none;}.cls-2{fill:#1d1d1b;}</style></defs><title>items icons</title><path class="cls-1" d="M35.64648,98.16774h.79394v5.54785a3.21267,3.21267,0,0,1-.17383,1.07324,2.2972,2.2972,0,0,1-1.35546,1.40723,3.08741,3.08741,0,0,1-1.1543.20019,2.82037,2.82037,0,0,1-1.08789-.1914,2.20894,2.20894,0,0,1-.76563-.51367,2.088,2.088,0,0,1-.4541-.74317,2.60313,2.60313,0,0,1-.15039-.88476,2.777,2.777,0,0,1,.03809-.45118,3.91138,3.91138,0,0,1,.09961-.4541,3.2012,3.2012,0,0,1,.14843-.42187,2.4848,2.4848,0,0,1,.18848-.35645l.67187.374a1.72593,1.72593,0,0,0-.12792.25878,2.2721,2.2721,0,0,0-.09668.30176,2.924,2.924,0,0,0-.06153.32422,2.30175,2.30175,0,0,0-.02246.32422,1.85231,1.85231,0,0,0,.11035.64551,1.47533,1.47533,0,0,0,.32324.52441,1.53587,1.53587,0,0,0,.52833.35352,1.88969,1.88969,0,0,0,.7207.12988,2.16736,2.16736,0,0,0,.77441-.12988,1.5487,1.5487,0,0,0,.57324-.375,1.633,1.633,0,0,0,.35645-.59766,2.41394,2.41394,0,0,0,.123-.79785Z"/><path class="cls-1" d="M37.84667,98.17262h.79395v4.73145a3.13383,3.13383,0,0,0,.02051.39453.67141.67141,0,0,0,.07031.24707.28372.28372,0,0,0,.13672.12793.572.572,0,0,0,.22265.03711h.29492a.433.433,0,0,1,.23829.05273.20309.20309,0,0,1,.0791.18164v.30371a.32735.32735,0,0,1-.02344.13477.18192.18192,0,0,1-.06836.07715.27858.27858,0,0,1-.10156.03515.81427.81427,0,0,1-.124.00879h-.41406a1.20329,1.20329,0,0,1-.50293-.09668.96219.96219,0,0,1-.35058-.26953,1.11847,1.11847,0,0,1-.20508-.40527,1.86536,1.86536,0,0,1-.06641-.50684Z"/><path class="cls-1" d="M41.3623,103.39821a1.41631,1.41631,0,0,0,.52539.24218,2.79577,2.79577,0,0,0,.64844.07032,5.90943,5.90943,0,0,1,.56445-1.22168,5.47021,5.47021,0,0,1,.45508-.63477,3.5175,3.5175,0,0,1,.56933-.54883,2.7831,2.7831,0,0,1,.67969-.38574,2.11325,2.11325,0,0,1,.78516-.14551,2.03511,2.03511,0,0,1,.86718.168,1.58644,1.58644,0,0,1,.59082.46289,1.9295,1.9295,0,0,1,.33985.69239,3.2462,3.2462,0,0,1,.1084.85937v.75391h.9082a.43516.43516,0,0,1,.23828.05273.20309.20309,0,0,1,.0791.18164v.30371a.31088.31088,0,0,1-.02441.13477.17581.17581,0,0,1-.06836.07715.27358.27358,0,0,1-.10059.03515.833.833,0,0,1-.124.00879H42.53124a2.58345,2.58345,0,0,1-.35937-.02441,2.13846,2.13846,0,0,1-.35059-.07715,1.84073,1.84073,0,0,1-.3291-.13672,1.30878,1.30878,0,0,1-.28418-.20312.97531.97531,0,0,1-.2998.31347.8462.8462,0,0,1-.48047.12793h-1.041a.43525.43525,0,0,1-.23828-.05273.20127.20127,0,0,1-.0791-.18067v-.30468a.31088.31088,0,0,1,.02441-.13477.17581.17581,0,0,1,.06836-.07715.27214.27214,0,0,1,.10156-.03515.81041.81041,0,0,1,.123-.00879h.87793a.25483.25483,0,0,0,.22266-.12305.69422.69422,0,0,0,.08105-.375v-1.26074h.79395Zm5.33984-.35352a2.29334,2.29334,0,0,0-.09473-.71387,1.2343,1.2343,0,0,0-.25781-.46093.9071.9071,0,0,0-.38379-.24707,1.48645,1.48645,0,0,0-.47168-.07227,1.463,1.463,0,0,0-.52441.09473,1.93733,1.93733,0,0,0-.47266.25781,2.59421,2.59421,0,0,0-.40722.37695,3.5559,3.5559,0,0,0-.33789.4541,3.83344,3.83344,0,0,0-.25977.49219,3.33086,3.33086,0,0,0-.17188.48438h3.38184Z"/><path class="cls-1" d="M48.40429,104.50465a.43525.43525,0,0,1-.23828-.05273.20125.20125,0,0,1-.0791-.18067v-.30468a.31088.31088,0,0,1,.02441-.13477.17581.17581,0,0,1,.06836-.07715.27214.27214,0,0,1,.10156-.03515.81031.81031,0,0,1,.12305-.00879h1.45117v-2.61426h.793v3.4082Zm.666-4.99219a.46251.46251,0,0,1,.03711-.18261.50016.50016,0,0,1,.09961-.14942.43728.43728,0,0,1,.14746-.10156.45917.45917,0,0,1,.36622,0,.48228.48228,0,0,1,.251.251.45915.45915,0,0,1,0,.36621.43718.43718,0,0,1-.10156.14746.50011.50011,0,0,1-.14941.09961.46384.46384,0,0,1-.1836.03711.46032.46032,0,0,1-.4668-.46778Zm1.25684,0a.46251.46251,0,0,1,.03711-.18261.5.5,0,0,1,.09961-.14942.43718.43718,0,0,1,.14746-.10156.45915.45915,0,0,1,.36621,0,.46583.46583,0,0,1,.14942.10156.45568.45568,0,0,1,.10156.14942.45926.45926,0,0,1,0,.36621.43747.43747,0,0,1-.10156.14746.51289.51289,0,0,1-.14942.09961.46379.46379,0,0,1-.18359.03711.45874.45874,0,0,1-.4668-.46778Z"/><path class="cls-1" d="M53.06445,105.54567a.96406.96406,0,0,0-.10547-.01758,1.253,1.253,0,0,0-.1543-.00879.60074.60074,0,0,0-.31348.07422.27113.27113,0,0,0-.123.252.38783.38783,0,0,0,.04.167.43234.43234,0,0,0,.11914.1504.6176.6176,0,0,0,.20019.10742.87661.87661,0,0,0,.28906.042h.12793v.37109H51.77734v-.37109h.50293a.6463.6463,0,0,1-.08887-.07422.663.663,0,0,1-.0918-.12207.75494.75494,0,0,1-.07519-.165.65355.65355,0,0,1-.03125-.207.55576.55576,0,0,1,.04687-.22266.52652.52652,0,0,1,.14258-.19238.7346.7346,0,0,1,.24512-.13379,1.05663,1.05663,0,0,1,.3457-.05078c.05078,0,.10449.001.16113.00391a1.5695,1.5695,0,0,1,.1875.02246Zm-.91211-7.37305h.79394v6.33691h-.79394Z"/><path class="cls-2" d="M42.50522,26.66953A24.81384,24.81384,0,1,1,17.706,51.47745,24.8912,24.8912,0,0,1,42.50522,26.66953Zm-.0186,47.16517A22.35381,22.35381,0,1,0,20.16475,51.4305,22.428,22.428,0,0,0,42.48662,73.8347Z"/><path class="cls-2" d="M46.439,63.622a13.57031,13.57031,0,0,1-7.65227-2.43277,19.14428,19.14428,0,0,1-8.34021-10.73259,13.48,13.48,0,0,1-.48219-3.51207c-.041-1.98129.78352-2.97188,2.70056-3.50735A5.72893,5.72893,0,0,1,33.8343,43.258a1.89072,1.89072,0,0,1,1.89817,1.0862,9.85963,9.85963,0,0,1,1.1752,3.67753,3.31867,3.31867,0,0,1-1.03577,2.99287,1.02413,1.02413,0,0,0-.26694,1.40787,11.65084,11.65084,0,0,0,5.77526,5.67793,1.05643,1.05643,0,0,0,1.30425-.15658,3.63131,3.63131,0,0,1,3.72533-.9881,15.7853,15.7853,0,0,1,2.64275.90543,1.824,1.824,0,0,1,1.18958,1.83533,8.90476,8.90476,0,0,1-.4052,2.31634,2.262,2.262,0,0,1-2.26242,1.607C47.19653,63.634,46.81755,63.622,46.439,63.622Z"/><path class="cls-2" d="M53.44192,52.155c0,.18032.00755.361-.00142.54089a.8794.8794,0,1,1-1.75865-.00034A10.83578,10.83578,0,0,0,41.17258,41.937c-.70833-.03415-1.07772-.257-1.16846-.7329a.8891.8891,0,0,1,.96213-1.0726,11.83934,11.83934,0,0,1,6.08631,1.62182A12.45294,12.45294,0,0,1,53.44192,52.155Z"/><path class="cls-2" d="M41.08509,43.78354a9.35964,9.35964,0,0,1,8.73817,8.73862c.01186.16162.01509.32449.01138.48652a.88934.88934,0,0,1-.85668.9783c-.54853.02133-.88379-.34094-.95929-.94329a12.74837,12.74837,0,0,0-.38636-2.32984,7.54124,7.54124,0,0,0-7.00977-5.1763c-.70925-.02111-1.16129-.48774-1.0311-1.06437a.9484.9484,0,0,1,1.06227-.72211C40.79764,43.7533,40.94132,43.77211,41.08509,43.78354Z"/><path class="cls-2" d="M46.16625,53.37433a1.034,1.034,0,0,1-.00083.16942.88452.88452,0,0,1-1.76386.08569c-.0543-.355-.05207-.72149-.13467-1.06867a4.293,4.293,0,0,0-4.10811-3.35315.91476.91476,0,1,1,.03751-1.81377A6.19119,6.19119,0,0,1,46.16625,53.37433Z"/></svg>