<?xml version="1.0" encoding="utf-8"?>
<svg xmlns="http://www.w3.org/2000/svg" xmlns:xlink="http://www.w3.org/1999/xlink" style="margin: auto; background: rgb(255, 255, 255); display: block; shape-rendering: auto;" width="643px" height="643px" viewBox="0 0 100 100" preserveAspectRatio="xMidYMid">
<g transform="rotate(0 50 50)">
  <rect x="45" y="32.5" rx="5" ry="0.5" width="10" height="1" fill="#3498db">
    <animate attributeName="opacity" values="1;0" keyTimes="0;1" dur="1.282051282051282s" begin="-1.2642450142450141s" repeatCount="indefinite"></animate>
  </rect>
</g><g transform="rotate(5 50 50)">
  <rect x="45" y="32.5" rx="5" ry="0.5" width="10" height="1" fill="#3498db">
    <animate attributeName="opacity" values="1;0" keyTimes="0;1" dur="1.282051282051282s" begin="-1.2464387464387463s" repeatCount="indefinite"></animate>
  </rect>
</g><g transform="rotate(10 50 50)">
  <rect x="45" y="32.5" rx="5" ry="0.5" width="10" height="1" fill="#3498db">
    <animate attributeName="opacity" values="1;0" keyTimes="0;1" dur="1.282051282051282s" begin="-1.2286324786324785s" repeatCount="indefinite"></animate>
  </rect>
</g><g transform="rotate(15 50 50)">
  <rect x="45" y="32.5" rx="5" ry="0.5" width="10" height="1" fill="#3498db">
    <animate attributeName="opacity" values="1;0" keyTimes="0;1" dur="1.282051282051282s" begin="-1.2108262108262107s" repeatCount="indefinite"></animate>
  </rect>
</g><g transform="rotate(20 50 50)">
  <rect x="45" y="32.5" rx="5" ry="0.5" width="10" height="1" fill="#3498db">
    <animate attributeName="opacity" values="1;0" keyTimes="0;1" dur="1.282051282051282s" begin="-1.1930199430199429s" repeatCount="indefinite"></animate>
  </rect>
</g><g transform="rotate(25 50 50)">
  <rect x="45" y="32.5" rx="5" ry="0.5" width="10" height="1" fill="#3498db">
    <animate attributeName="opacity" values="1;0" keyTimes="0;1" dur="1.282051282051282s" begin="-1.175213675213675s" repeatCount="indefinite"></animate>
  </rect>
</g><g transform="rotate(30 50 50)">
  <rect x="45" y="32.5" rx="5" ry="0.5" width="10" height="1" fill="#3498db">
    <animate attributeName="opacity" values="1;0" keyTimes="0;1" dur="1.282051282051282s" begin="-1.1574074074074074s" repeatCount="indefinite"></animate>
  </rect>
</g><g transform="rotate(35 50 50)">
  <rect x="45" y="32.5" rx="5" ry="0.5" width="10" height="1" fill="#3498db">
    <animate attributeName="opacity" values="1;0" keyTimes="0;1" dur="1.282051282051282s" begin="-1.1396011396011396s" repeatCount="indefinite"></animate>
  </rect>
</g><g transform="rotate(40 50 50)">
  <rect x="45" y="32.5" rx="5" ry="0.5" width="10" height="1" fill="#3498db">
    <animate attributeName="opacity" values="1;0" keyTimes="0;1" dur="1.282051282051282s" begin="-1.1217948717948718s" repeatCount="indefinite"></animate>
  </rect>
</g><g transform="rotate(45 50 50)">
  <rect x="45" y="32.5" rx="5" ry="0.5" width="10" height="1" fill="#3498db">
    <animate attributeName="opacity" values="1;0" keyTimes="0;1" dur="1.282051282051282s" begin="-1.103988603988604s" repeatCount="indefinite"></animate>
  </rect>
</g><g transform="rotate(50 50 50)">
  <rect x="45" y="32.5" rx="5" ry="0.5" width="10" height="1" fill="#3498db">
    <animate attributeName="opacity" values="1;0" keyTimes="0;1" dur="1.282051282051282s" begin="-1.0861823361823362s" repeatCount="indefinite"></animate>
  </rect>
</g><g transform="rotate(55 50 50)">
  <rect x="45" y="32.5" rx="5" ry="0.5" width="10" height="1" fill="#3498db">
    <animate attributeName="opacity" values="1;0" keyTimes="0;1" dur="1.282051282051282s" begin="-1.0683760683760684s" repeatCount="indefinite"></animate>
  </rect>
</g><g transform="rotate(60 50 50)">
  <rect x="45" y="32.5" rx="5" ry="0.5" width="10" height="1" fill="#3498db">
    <animate attributeName="opacity" values="1;0" keyTimes="0;1" dur="1.282051282051282s" begin="-1.0505698005698005s" repeatCount="indefinite"></animate>
  </rect>
</g><g transform="rotate(65 50 50)">
  <rect x="45" y="32.5" rx="5" ry="0.5" width="10" height="1" fill="#3498db">
    <animate attributeName="opacity" values="1;0" keyTimes="0;1" dur="1.282051282051282s" begin="-1.0327635327635327s" repeatCount="indefinite"></animate>
  </rect>
</g><g transform="rotate(70 50 50)">
  <rect x="45" y="32.5" rx="5" ry="0.5" width="10" height="1" fill="#3498db">
    <animate attributeName="opacity" values="1;0" keyTimes="0;1" dur="1.282051282051282s" begin="-1.014957264957265s" repeatCount="indefinite"></animate>
  </rect>
</g><g transform="rotate(75 50 50)">
  <rect x="45" y="32.5" rx="5" ry="0.5" width="10" height="1" fill="#3498db">
    <animate attributeName="opacity" values="1;0" keyTimes="0;1" dur="1.282051282051282s" begin="-0.9971509971509971s" repeatCount="indefinite"></animate>
  </rect>
</g><g transform="rotate(80 50 50)">
  <rect x="45" y="32.5" rx="5" ry="0.5" width="10" height="1" fill="#3498db">
    <animate attributeName="opacity" values="1;0" keyTimes="0;1" dur="1.282051282051282s" begin="-0.9793447293447293s" repeatCount="indefinite"></animate>
  </rect>
</g><g transform="rotate(85 50 50)">
  <rect x="45" y="32.5" rx="5" ry="0.5" width="10" height="1" fill="#3498db">
    <animate attributeName="opacity" values="1;0" keyTimes="0;1" dur="1.282051282051282s" begin="-0.9615384615384615s" repeatCount="indefinite"></animate>
  </rect>
</g><g transform="rotate(90 50 50)">
  <rect x="45" y="32.5" rx="5" ry="0.5" width="10" height="1" fill="#3498db">
    <animate attributeName="opacity" values="1;0" keyTimes="0;1" dur="1.282051282051282s" begin="-0.9437321937321936s" repeatCount="indefinite"></animate>
  </rect>
</g><g transform="rotate(95 50 50)">
  <rect x="45" y="32.5" rx="5" ry="0.5" width="10" height="1" fill="#3498db">
    <animate attributeName="opacity" values="1;0" keyTimes="0;1" dur="1.282051282051282s" begin="-0.9259259259259258s" repeatCount="indefinite"></animate>
  </rect>
</g><g transform="rotate(100 50 50)">
  <rect x="45" y="32.5" rx="5" ry="0.5" width="10" height="1" fill="#3498db">
    <animate attributeName="opacity" values="1;0" keyTimes="0;1" dur="1.282051282051282s" begin="-0.9081196581196581s" repeatCount="indefinite"></animate>
  </rect>
</g><g transform="rotate(105 50 50)">
  <rect x="45" y="32.5" rx="5" ry="0.5" width="10" height="1" fill="#3498db">
    <animate attributeName="opacity" values="1;0" keyTimes="0;1" dur="1.282051282051282s" begin="-0.8903133903133903s" repeatCount="indefinite"></animate>
  </rect>
</g><g transform="rotate(110 50 50)">
  <rect x="45" y="32.5" rx="5" ry="0.5" width="10" height="1" fill="#3498db">
    <animate attributeName="opacity" values="1;0" keyTimes="0;1" dur="1.282051282051282s" begin="-0.8725071225071225s" repeatCount="indefinite"></animate>
  </rect>
</g><g transform="rotate(115 50 50)">
  <rect x="45" y="32.5" rx="5" ry="0.5" width="10" height="1" fill="#3498db">
    <animate attributeName="opacity" values="1;0" keyTimes="0;1" dur="1.282051282051282s" begin="-0.8547008547008547s" repeatCount="indefinite"></animate>
  </rect>
</g><g transform="rotate(120 50 50)">
  <rect x="45" y="32.5" rx="5" ry="0.5" width="10" height="1" fill="#3498db">
    <animate attributeName="opacity" values="1;0" keyTimes="0;1" dur="1.282051282051282s" begin="-0.8368945868945868s" repeatCount="indefinite"></animate>
  </rect>
</g><g transform="rotate(125 50 50)">
  <rect x="45" y="32.5" rx="5" ry="0.5" width="10" height="1" fill="#3498db">
    <animate attributeName="opacity" values="1;0" keyTimes="0;1" dur="1.282051282051282s" begin="-0.819088319088319s" repeatCount="indefinite"></animate>
  </rect>
</g><g transform="rotate(130 50 50)">
  <rect x="45" y="32.5" rx="5" ry="0.5" width="10" height="1" fill="#3498db">
    <animate attributeName="opacity" values="1;0" keyTimes="0;1" dur="1.282051282051282s" begin="-0.8012820512820512s" repeatCount="indefinite"></animate>
  </rect>
</g><g transform="rotate(135 50 50)">
  <rect x="45" y="32.5" rx="5" ry="0.5" width="10" height="1" fill="#3498db">
    <animate attributeName="opacity" values="1;0" keyTimes="0;1" dur="1.282051282051282s" begin="-0.7834757834757834s" repeatCount="indefinite"></animate>
  </rect>
</g><g transform="rotate(140 50 50)">
  <rect x="45" y="32.5" rx="5" ry="0.5" width="10" height="1" fill="#3498db">
    <animate attributeName="opacity" values="1;0" keyTimes="0;1" dur="1.282051282051282s" begin="-0.7656695156695156s" repeatCount="indefinite"></animate>
  </rect>
</g><g transform="rotate(145 50 50)">
  <rect x="45" y="32.5" rx="5" ry="0.5" width="10" height="1" fill="#3498db">
    <animate attributeName="opacity" values="1;0" keyTimes="0;1" dur="1.282051282051282s" begin="-0.7478632478632478s" repeatCount="indefinite"></animate>
  </rect>
</g><g transform="rotate(150 50 50)">
  <rect x="45" y="32.5" rx="5" ry="0.5" width="10" height="1" fill="#3498db">
    <animate attributeName="opacity" values="1;0" keyTimes="0;1" dur="1.282051282051282s" begin="-0.73005698005698s" repeatCount="indefinite"></animate>
  </rect>
</g><g transform="rotate(155 50 50)">
  <rect x="45" y="32.5" rx="5" ry="0.5" width="10" height="1" fill="#3498db">
    <animate attributeName="opacity" values="1;0" keyTimes="0;1" dur="1.282051282051282s" begin="-0.7122507122507122s" repeatCount="indefinite"></animate>
  </rect>
</g><g transform="rotate(160 50 50)">
  <rect x="45" y="32.5" rx="5" ry="0.5" width="10" height="1" fill="#3498db">
    <animate attributeName="opacity" values="1;0" keyTimes="0;1" dur="1.282051282051282s" begin="-0.6944444444444444s" repeatCount="indefinite"></animate>
  </rect>
</g><g transform="rotate(165 50 50)">
  <rect x="45" y="32.5" rx="5" ry="0.5" width="10" height="1" fill="#3498db">
    <animate attributeName="opacity" values="1;0" keyTimes="0;1" dur="1.282051282051282s" begin="-0.6766381766381766s" repeatCount="indefinite"></animate>
  </rect>
</g><g transform="rotate(170 50 50)">
  <rect x="45" y="32.5" rx="5" ry="0.5" width="10" height="1" fill="#3498db">
    <animate attributeName="opacity" values="1;0" keyTimes="0;1" dur="1.282051282051282s" begin="-0.6588319088319088s" repeatCount="indefinite"></animate>
  </rect>
</g><g transform="rotate(175 50 50)">
  <rect x="45" y="32.5" rx="5" ry="0.5" width="10" height="1" fill="#3498db">
    <animate attributeName="opacity" values="1;0" keyTimes="0;1" dur="1.282051282051282s" begin="-0.641025641025641s" repeatCount="indefinite"></animate>
  </rect>
</g><g transform="rotate(180 50 50)">
  <rect x="45" y="32.5" rx="5" ry="0.5" width="10" height="1" fill="#3498db">
    <animate attributeName="opacity" values="1;0" keyTimes="0;1" dur="1.282051282051282s" begin="-0.6232193732193732s" repeatCount="indefinite"></animate>
  </rect>
</g><g transform="rotate(185 50 50)">
  <rect x="45" y="32.5" rx="5" ry="0.5" width="10" height="1" fill="#3498db">
    <animate attributeName="opacity" values="1;0" keyTimes="0;1" dur="1.282051282051282s" begin="-0.6054131054131053s" repeatCount="indefinite"></animate>
  </rect>
</g><g transform="rotate(190 50 50)">
  <rect x="45" y="32.5" rx="5" ry="0.5" width="10" height="1" fill="#3498db">
    <animate attributeName="opacity" values="1;0" keyTimes="0;1" dur="1.282051282051282s" begin="-0.5876068376068375s" repeatCount="indefinite"></animate>
  </rect>
</g><g transform="rotate(195 50 50)">
  <rect x="45" y="32.5" rx="5" ry="0.5" width="10" height="1" fill="#3498db">
    <animate attributeName="opacity" values="1;0" keyTimes="0;1" dur="1.282051282051282s" begin="-0.5698005698005698s" repeatCount="indefinite"></animate>
  </rect>
</g><g transform="rotate(200 50 50)">
  <rect x="45" y="32.5" rx="5" ry="0.5" width="10" height="1" fill="#3498db">
    <animate attributeName="opacity" values="1;0" keyTimes="0;1" dur="1.282051282051282s" begin="-0.551994301994302s" repeatCount="indefinite"></animate>
  </rect>
</g><g transform="rotate(205 50 50)">
  <rect x="45" y="32.5" rx="5" ry="0.5" width="10" height="1" fill="#3498db">
    <animate attributeName="opacity" values="1;0" keyTimes="0;1" dur="1.282051282051282s" begin="-0.5341880341880342s" repeatCount="indefinite"></animate>
  </rect>
</g><g transform="rotate(210 50 50)">
  <rect x="45" y="32.5" rx="5" ry="0.5" width="10" height="1" fill="#3498db">
    <animate attributeName="opacity" values="1;0" keyTimes="0;1" dur="1.282051282051282s" begin="-0.5163817663817664s" repeatCount="indefinite"></animate>
  </rect>
</g><g transform="rotate(215 50 50)">
  <rect x="45" y="32.5" rx="5" ry="0.5" width="10" height="1" fill="#3498db">
    <animate attributeName="opacity" values="1;0" keyTimes="0;1" dur="1.282051282051282s" begin="-0.49857549857549854s" repeatCount="indefinite"></animate>
  </rect>
</g><g transform="rotate(220 50 50)">
  <rect x="45" y="32.5" rx="5" ry="0.5" width="10" height="1" fill="#3498db">
    <animate attributeName="opacity" values="1;0" keyTimes="0;1" dur="1.282051282051282s" begin="-0.4807692307692307s" repeatCount="indefinite"></animate>
  </rect>
</g><g transform="rotate(225 50 50)">
  <rect x="45" y="32.5" rx="5" ry="0.5" width="10" height="1" fill="#3498db">
    <animate attributeName="opacity" values="1;0" keyTimes="0;1" dur="1.282051282051282s" begin="-0.4629629629629629s" repeatCount="indefinite"></animate>
  </rect>
</g><g transform="rotate(230 50 50)">
  <rect x="45" y="32.5" rx="5" ry="0.5" width="10" height="1" fill="#3498db">
    <animate attributeName="opacity" values="1;0" keyTimes="0;1" dur="1.282051282051282s" begin="-0.44515669515669515s" repeatCount="indefinite"></animate>
  </rect>
</g><g transform="rotate(235 50 50)">
  <rect x="45" y="32.5" rx="5" ry="0.5" width="10" height="1" fill="#3498db">
    <animate attributeName="opacity" values="1;0" keyTimes="0;1" dur="1.282051282051282s" begin="-0.42735042735042733s" repeatCount="indefinite"></animate>
  </rect>
</g><g transform="rotate(240 50 50)">
  <rect x="45" y="32.5" rx="5" ry="0.5" width="10" height="1" fill="#3498db">
    <animate attributeName="opacity" values="1;0" keyTimes="0;1" dur="1.282051282051282s" begin="-0.4095441595441595s" repeatCount="indefinite"></animate>
  </rect>
</g><g transform="rotate(245 50 50)">
  <rect x="45" y="32.5" rx="5" ry="0.5" width="10" height="1" fill="#3498db">
    <animate attributeName="opacity" values="1;0" keyTimes="0;1" dur="1.282051282051282s" begin="-0.3917378917378917s" repeatCount="indefinite"></animate>
  </rect>
</g><g transform="rotate(250 50 50)">
  <rect x="45" y="32.5" rx="5" ry="0.5" width="10" height="1" fill="#3498db">
    <animate attributeName="opacity" values="1;0" keyTimes="0;1" dur="1.282051282051282s" begin="-0.3739316239316239s" repeatCount="indefinite"></animate>
  </rect>
</g><g transform="rotate(255 50 50)">
  <rect x="45" y="32.5" rx="5" ry="0.5" width="10" height="1" fill="#3498db">
    <animate attributeName="opacity" values="1;0" keyTimes="0;1" dur="1.282051282051282s" begin="-0.3561253561253561s" repeatCount="indefinite"></animate>
  </rect>
</g><g transform="rotate(260 50 50)">
  <rect x="45" y="32.5" rx="5" ry="0.5" width="10" height="1" fill="#3498db">
    <animate attributeName="opacity" values="1;0" keyTimes="0;1" dur="1.282051282051282s" begin="-0.3383190883190883s" repeatCount="indefinite"></animate>
  </rect>
</g><g transform="rotate(265 50 50)">
  <rect x="45" y="32.5" rx="5" ry="0.5" width="10" height="1" fill="#3498db">
    <animate attributeName="opacity" values="1;0" keyTimes="0;1" dur="1.282051282051282s" begin="-0.3205128205128205s" repeatCount="indefinite"></animate>
  </rect>
</g><g transform="rotate(270 50 50)">
  <rect x="45" y="32.5" rx="5" ry="0.5" width="10" height="1" fill="#3498db">
    <animate attributeName="opacity" values="1;0" keyTimes="0;1" dur="1.282051282051282s" begin="-0.30270655270655267s" repeatCount="indefinite"></animate>
  </rect>
</g><g transform="rotate(275 50 50)">
  <rect x="45" y="32.5" rx="5" ry="0.5" width="10" height="1" fill="#3498db">
    <animate attributeName="opacity" values="1;0" keyTimes="0;1" dur="1.282051282051282s" begin="-0.2849002849002849s" repeatCount="indefinite"></animate>
  </rect>
</g><g transform="rotate(280 50 50)">
  <rect x="45" y="32.5" rx="5" ry="0.5" width="10" height="1" fill="#3498db">
    <animate attributeName="opacity" values="1;0" keyTimes="0;1" dur="1.282051282051282s" begin="-0.2670940170940171s" repeatCount="indefinite"></animate>
  </rect>
</g><g transform="rotate(285 50 50)">
  <rect x="45" y="32.5" rx="5" ry="0.5" width="10" height="1" fill="#3498db">
    <animate attributeName="opacity" values="1;0" keyTimes="0;1" dur="1.282051282051282s" begin="-0.24928774928774927s" repeatCount="indefinite"></animate>
  </rect>
</g><g transform="rotate(290 50 50)">
  <rect x="45" y="32.5" rx="5" ry="0.5" width="10" height="1" fill="#3498db">
    <animate attributeName="opacity" values="1;0" keyTimes="0;1" dur="1.282051282051282s" begin="-0.23148148148148145s" repeatCount="indefinite"></animate>
  </rect>
</g><g transform="rotate(295 50 50)">
  <rect x="45" y="32.5" rx="5" ry="0.5" width="10" height="1" fill="#3498db">
    <animate attributeName="opacity" values="1;0" keyTimes="0;1" dur="1.282051282051282s" begin="-0.21367521367521367s" repeatCount="indefinite"></animate>
  </rect>
</g><g transform="rotate(300 50 50)">
  <rect x="45" y="32.5" rx="5" ry="0.5" width="10" height="1" fill="#3498db">
    <animate attributeName="opacity" values="1;0" keyTimes="0;1" dur="1.282051282051282s" begin="-0.19586894586894585s" repeatCount="indefinite"></animate>
  </rect>
</g><g transform="rotate(305 50 50)">
  <rect x="45" y="32.5" rx="5" ry="0.5" width="10" height="1" fill="#3498db">
    <animate attributeName="opacity" values="1;0" keyTimes="0;1" dur="1.282051282051282s" begin="-0.17806267806267806s" repeatCount="indefinite"></animate>
  </rect>
</g><g transform="rotate(310 50 50)">
  <rect x="45" y="32.5" rx="5" ry="0.5" width="10" height="1" fill="#3498db">
    <animate attributeName="opacity" values="1;0" keyTimes="0;1" dur="1.282051282051282s" begin="-0.16025641025641024s" repeatCount="indefinite"></animate>
  </rect>
</g><g transform="rotate(315 50 50)">
  <rect x="45" y="32.5" rx="5" ry="0.5" width="10" height="1" fill="#3498db">
    <animate attributeName="opacity" values="1;0" keyTimes="0;1" dur="1.282051282051282s" begin="-0.14245014245014245s" repeatCount="indefinite"></animate>
  </rect>
</g><g transform="rotate(320 50 50)">
  <rect x="45" y="32.5" rx="5" ry="0.5" width="10" height="1" fill="#3498db">
    <animate attributeName="opacity" values="1;0" keyTimes="0;1" dur="1.282051282051282s" begin="-0.12464387464387464s" repeatCount="indefinite"></animate>
  </rect>
</g><g transform="rotate(325 50 50)">
  <rect x="45" y="32.5" rx="5" ry="0.5" width="10" height="1" fill="#3498db">
    <animate attributeName="opacity" values="1;0" keyTimes="0;1" dur="1.282051282051282s" begin="-0.10683760683760683s" repeatCount="indefinite"></animate>
  </rect>
</g><g transform="rotate(330 50 50)">
  <rect x="45" y="32.5" rx="5" ry="0.5" width="10" height="1" fill="#3498db">
    <animate attributeName="opacity" values="1;0" keyTimes="0;1" dur="1.282051282051282s" begin="-0.08903133903133903s" repeatCount="indefinite"></animate>
  </rect>
</g><g transform="rotate(335 50 50)">
  <rect x="45" y="32.5" rx="5" ry="0.5" width="10" height="1" fill="#3498db">
    <animate attributeName="opacity" values="1;0" keyTimes="0;1" dur="1.282051282051282s" begin="-0.07122507122507123s" repeatCount="indefinite"></animate>
  </rect>
</g><g transform="rotate(340 50 50)">
  <rect x="45" y="32.5" rx="5" ry="0.5" width="10" height="1" fill="#3498db">
    <animate attributeName="opacity" values="1;0" keyTimes="0;1" dur="1.282051282051282s" begin="-0.053418803418803416s" repeatCount="indefinite"></animate>
  </rect>
</g><g transform="rotate(345 50 50)">
  <rect x="45" y="32.5" rx="5" ry="0.5" width="10" height="1" fill="#3498db">
    <animate attributeName="opacity" values="1;0" keyTimes="0;1" dur="1.282051282051282s" begin="-0.03561253561253561s" repeatCount="indefinite"></animate>
  </rect>
</g><g transform="rotate(350 50 50)">
  <rect x="45" y="32.5" rx="5" ry="0.5" width="10" height="1" fill="#3498db">
    <animate attributeName="opacity" values="1;0" keyTimes="0;1" dur="1.282051282051282s" begin="-0.017806267806267807s" repeatCount="indefinite"></animate>
  </rect>
</g><g transform="rotate(355 50 50)">
  <rect x="45" y="32.5" rx="5" ry="0.5" width="10" height="1" fill="#3498db">
    <animate attributeName="opacity" values="1;0" keyTimes="0;1" dur="1.282051282051282s" begin="0s" repeatCount="indefinite"></animate>
  </rect>
</g>
<!-- [ldio] generated by https://loading.io/ --></svg>