<svg id="Layer_1" data-name="Layer 1" xmlns="http://www.w3.org/2000/svg" viewBox="0 0 28.34646 28.34646"><defs><style>.cls-1{fill:#fff;}</style></defs><title>Category sort</title><path d="M22.63916,11.54479a2.175,2.175,0,0,0-2.28237-2.30723Q14.183,9.22181,8.0091,9.2455a2.14591,2.14591,0,0,0-2.29591,2.28108q-.031,1.82606-.00375,3.653a2.1444,2.1444,0,0,0,2.32428,2.32565q1.53408.02128,3.0686.00245A2.49157,2.49157,0,0,1,13.536,18.93189c.16432.31592.37456.608.64544,1.04165.22623-.3767.38036-.59434.49514-.83106a2.67191,2.67191,0,0,1,2.754-1.63749c.97194.04585,1.94829.02269,2.922.00064a2.1769,2.1769,0,0,0,2.28258-2.30777Q22.66206,13.37164,22.63916,11.54479Z"/><path class="cls-1" d="M9.24368,11.701h.70117l1.33789,2.15137h.00977V11.701h.66015v3.207h-.70507l-1.334-2.147H9.90384v2.147H9.24368Z"/><path class="cls-1" d="M12.57083,11.701h2.39844v.59327H13.27591v.687h1.55468v.54785H13.27591v.78613H15.0054V14.908H12.57083Z"/><path class="cls-1" d="M18.53665,14.908h-.70117l-.543-2.18261h-.00879L16.74856,14.908h-.71387l-.84863-3.207h.70508l.50781,2.18311h.00879l.55664-2.18311h.66016l.54785,2.21h.00879l.52637-2.21h.6914Z"/></svg>