<svg id="Layer_1" data-name="Layer 1" xmlns="http://www.w3.org/2000/svg" viewBox="0 0 28.34646 28.34646"><defs><style>.cls-1,.cls-2{fill:none;stroke:#000;stroke-linecap:round;stroke-linejoin:round;}.cls-1{stroke-width:0.46483px;}.cls-2{stroke-width:0.30989px;}</style></defs><title>Category sort</title><path class="cls-1" d="M20.0889,14.60246c0,.66626-1.921.94542-2.16129,1.52478-.249.60053.90236,2.15449.44978,2.60706s-2.00644-.69895-2.60693-.44993c-.57935.24025-.8585,2.16127-1.52474,2.16127s-.94542-1.921-1.52478-2.16129c-.60053-.249-2.15449.90236-2.60706.44978s.699-2.00644.44993-2.60693c-.24025-.57935-2.16127-.8585-2.16127-1.52474s1.921-.94542,2.16129-1.52478c.249-.60053-.90237-2.15449-.44978-2.60706s2.00644.699,2.60693.44993c.57934-.24025.8585-2.16127,1.52474-2.16127s.94542,1.921,1.52478,2.16129c.60053.249,2.15449-.90236,2.607-.44978s-.69894,2.00644-.44992,2.60693C18.16788,13.65707,20.0889,13.93622,20.0889,14.60246Z"/><line class="cls-2" x1="15.93243" y1="11.8772" x2="12.4242" y2="17.32773"/><circle cx="12.53311" cy="13.54353" r="0.76772"/><circle cx="15.95832" cy="15.719" r="0.76772"/></svg>